<?xml version="1.0" encoding="UTF-8"?>
<svg width="31px" height="30px" viewBox="0 0 31 30" version="1.1" xmlns="http://www.w3.org/2000/svg" xmlns:xlink="http://www.w3.org/1999/xlink">
    <!-- Generator: Sketch 51.2 (57519) - http://www.bohemiancoding.com/sketch -->
    <title>iconQQ</title>
    <desc>Created with Sketch.</desc>
    <defs></defs>
    <g id="Page-1" stroke="none" stroke-width="1" fill="none" fill-rule="evenodd">
        <g id="3-1帐号密码登录" transform="translate(-171.000000, -597.000000)">
            <g id="其他登录方式" transform="translate(22.500000, 557.000000)">
                <g id="QQ" transform="translate(148.000000, 40.000000)">
                    <g id="iconQQ" transform="translate(1.000000, 0.000000)">
                        <circle id="Oval-2" fill="#62B6EA" cx="15" cy="15" r="15"></circle>
                        <path d="M7.54777696,16.3052434 C6.92382967,17.8121099 6.81625255,19.2340824 7.3111073,19.488764 C7.65535408,19.6797753 8.21475509,19.2553059 8.73112526,18.4912609 C8.92476407,19.3401997 9.44113424,20.0830212 10.1511432,20.6985019 C9.39810339,20.974407 8.90324865,21.4413233 8.90324865,21.9506866 C8.90324865,22.7996255 10.2372049,23.5 11.8723771,23.5 C13.3569413,23.5 14.5833205,22.9481898 14.8199902,22.2053683 C14.8845364,22.2053683 15.1212061,22.2053683 15.1642369,22.2053683 C15.4009066,22.9481898 16.6272857,23.5 18.11185,23.5 C19.7685376,23.5 21.0809784,22.8208489 21.0809784,21.9506866 C21.0809784,21.4413233 20.5861237,20.974407 19.8330839,20.6985019 C20.5430928,20.0830212 21.059463,19.3401997 21.2531018,18.4912609 C21.769472,19.2553059 22.3073576,19.6797753 22.6731198,19.488764 C23.18949,19.2340824 23.0819128,17.7908864 22.4364501,16.3052434 C21.9415954,15.1379526 21.2746172,14.2677903 20.7582471,14.076779 C20.7582471,14.0131086 20.7797625,13.9282147 20.7797625,13.8433208 C20.7797625,13.397628 20.65067,12.9731585 20.4355157,12.633583 C20.4355157,12.6123595 20.4355157,12.5911361 20.4355157,12.5486891 C20.4355157,12.3364544 20.3924849,12.1454432 20.3064232,11.9756554 C20.1773306,8.91947564 18.1979117,6.5 14.9921136,6.5 C11.7863154,6.5 9.80689648,8.91947566 9.67780393,11.9756554 C9.59174224,12.1454432 9.54871139,12.3364544 9.54871139,12.5486891 C9.54871139,12.5699126 9.54871139,12.5911361 9.54871139,12.633583 C9.33355715,12.9731585 9.20446461,13.397628 9.20446461,13.8433208 C9.20446461,13.9282147 9.20446461,13.9918851 9.20446461,14.076779 C8.73112526,14.2677903 8.0426317,15.1167291 7.54777696,16.3052434 Z" id="Shape" fill="#FFFFFF" fill-rule="nonzero"></path>
                    </g>
                </g>
            </g>
        </g>
    </g>
</svg>